<svg width="634" height="478" viewBox="0 0 634 478" fill="none" xmlns="http://www.w3.org/2000/svg">
<rect width="634" height="478" fill="#2A254B"/>
<path d="M68.192 94V72.56H65.92V94H68.192ZM81.7098 94V91.92H78.8298C76.5258 91.92 75.4378 91.312 75.4378 89.104V80.144H81.7098V78.192H75.4378V74.416H73.1338V78.192H70.3178V80.144H73.1338V88.976C73.1338 92.688 75.1498 94 78.2858 94H81.7098ZM97.0203 94.32C101.116 94.32 104.06 92.752 104.06 89.776C104.06 87.216 102.236 86.064 98.8443 85.584L94.9723 85.04C92.3483 84.656 91.5163 84.08 91.5163 82.448C91.5163 80.56 92.8923 79.76 96.2203 79.76C100.252 79.76 101.5 81.04 101.5 83.408V83.568H103.772V83.504C103.772 79.792 100.828 77.872 96.2843 77.872C91.9323 77.872 89.2763 79.632 89.2763 82.416C89.2763 85.04 91.1003 86.16 93.9803 86.544L98.2043 87.152C100.828 87.568 101.82 88.112 101.82 89.776C101.82 91.6 100.604 92.432 97.0523 92.432C93.1803 92.432 91.6123 91.504 91.6123 88.848V88.656H89.3403V88.72C89.3403 92.368 92.1562 94.32 97.0203 94.32ZM116.741 94V91.92H113.861C111.557 91.92 110.469 91.312 110.469 89.104V80.144H116.741V78.192H110.469V74.416H108.165V78.192H105.349V80.144H108.165V88.976C108.165 92.688 110.181 94 113.317 94H116.741ZM123.617 94.32C127.297 94.32 130.081 92.656 131.009 89.744H131.169V94H133.217V84.112C133.217 80.624 131.169 77.872 126.369 77.872C121.505 77.872 118.753 80.592 118.753 83.92V84.048H121.025V83.92C121.025 81.136 122.817 79.92 126.209 79.92C129.665 79.92 131.009 81.136 131.009 84.208V85.424L123.489 86.256C120.545 86.576 118.401 87.696 118.401 90.288C118.401 92.848 120.513 94.32 123.617 94.32ZM120.673 90.128C120.673 88.496 121.825 87.92 124.193 87.696L131.009 86.928V87.056C131.009 90.864 127.969 92.56 124.129 92.56C121.729 92.56 120.673 91.728 120.673 90.128ZM139.223 94V85.424C139.223 81.872 140.631 79.856 143.831 79.856C146.583 79.856 147.703 81.168 147.703 83.856V85.072H149.975V83.504C149.975 80.56 148.375 77.872 144.727 77.872C141.431 77.872 139.639 79.984 139.159 82.512H138.999V78.192H136.951V94H139.223ZM162.304 94V91.92H159.424C157.12 91.92 156.032 91.312 156.032 89.104V80.144H162.304V78.192H156.032V74.416H153.728V78.192H150.912V80.144H153.728V88.976C153.728 92.688 155.744 94 158.88 94H162.304ZM172.315 94.32C176.731 94.32 179.995 92.048 179.995 88.752V88.528H177.723V88.752C177.723 91.056 175.995 92.432 172.283 92.432C168.091 92.432 166.267 90.288 166.139 86.736H180.059C180.155 86.32 180.219 85.84 180.219 85.264C180.219 80.56 176.923 77.872 172.283 77.872C167.195 77.872 163.995 81.296 163.995 86.096C163.995 91.12 167.227 94.32 172.315 94.32ZM172.251 79.76C175.963 79.76 178.075 81.52 178.075 84.848C178.075 85.008 178.075 85.168 178.075 85.328H166.139C166.299 81.872 168.155 79.76 172.251 79.76ZM190.049 94.32C193.537 94.32 196.097 92.496 196.865 89.328H196.993V94H199.073V72.56H196.801V82.608H196.641C195.937 79.888 193.601 77.872 189.857 77.872C184.993 77.872 182.177 81.296 182.177 86.096C182.177 90.896 184.993 94.32 190.049 94.32ZM184.481 86.096C184.481 81.52 186.945 79.984 190.561 79.984C194.465 79.984 196.801 82.16 196.801 86.064V86.352C196.801 90.096 194.337 92.24 190.625 92.24C186.913 92.24 184.481 90.672 184.481 86.096ZM215.036 94L219.196 83.664L220.444 80.144H220.604L221.852 83.664L225.948 94H228.796L233.916 78.192H231.58L228.188 88.656L227.42 91.984H227.228L226.14 88.464L222.012 78.192H219.1L214.94 88.464L213.852 92.016H213.66L212.86 88.656L209.5 78.192H207.164L212.22 94H215.036ZM238.411 76.176V72.56H236.139V76.176H238.411ZM238.411 94V78.192H236.139V94H238.411ZM251.929 94V91.92H249.049C246.745 91.92 245.657 91.312 245.657 89.104V80.144H251.929V78.192H245.657V74.416H243.353V78.192H240.537V80.144H243.353V88.976C243.353 92.688 245.369 94 248.505 94H251.929ZM256.692 94V86.576C256.692 82.64 258.324 79.952 262.548 79.952C266.1 79.952 267.796 81.488 267.796 85.104V94H270.068V84.816C270.068 80.816 267.86 77.872 263.444 77.872C259.412 77.872 257.364 80.368 256.852 83.024H256.692V72.56H254.42V94H256.692ZM284.085 94.32C287.765 94.32 290.549 92.656 291.477 89.744H291.637V94H293.685V84.112C293.685 80.624 291.637 77.872 286.837 77.872C281.973 77.872 279.221 80.592 279.221 83.92V84.048H281.493V83.92C281.493 81.136 283.285 79.92 286.677 79.92C290.133 79.92 291.477 81.136 291.477 84.208V85.424L283.957 86.256C281.013 86.576 278.869 87.696 278.869 90.288C278.869 92.848 280.981 94.32 284.085 94.32ZM281.141 90.128C281.141 88.496 282.293 87.92 284.661 87.696L291.477 86.928V87.056C291.477 90.864 288.437 92.56 284.597 92.56C282.197 92.56 281.141 91.728 281.141 90.128ZM310.239 94.32C314.335 94.32 317.279 92.752 317.279 89.776C317.279 87.216 315.455 86.064 312.063 85.584L308.191 85.04C305.567 84.656 304.735 84.08 304.735 82.448C304.735 80.56 306.111 79.76 309.439 79.76C313.471 79.76 314.719 81.04 314.719 83.408V83.568H316.991V83.504C316.991 79.792 314.047 77.872 309.503 77.872C305.151 77.872 302.495 79.632 302.495 82.416C302.495 85.04 304.319 86.16 307.199 86.544L311.423 87.152C314.047 87.568 315.039 88.112 315.039 89.776C315.039 91.6 313.823 92.432 310.271 92.432C306.399 92.432 304.831 91.504 304.831 88.848V88.656H302.559V88.72C302.559 92.368 305.375 94.32 310.239 94.32ZM322.536 94V86.352C322.536 82.16 324.04 79.952 327.88 79.952C331.208 79.952 332.68 81.584 332.68 85.104V94H334.952V86.352C334.952 82.16 336.488 79.952 340.296 79.952C343.624 79.952 345.128 81.584 345.128 85.104V94H347.4V84.784C347.4 80.784 345.256 77.872 341.128 77.872C337.16 77.872 335.272 80.4 334.824 83.12H334.664C334.152 80.048 332.168 77.872 328.648 77.872C324.712 77.872 322.888 80.304 322.44 82.96H322.312V78.192H320.264V94H322.536ZM355.492 94.32C359.172 94.32 361.956 92.656 362.884 89.744H363.044V94H365.092V84.112C365.092 80.624 363.044 77.872 358.244 77.872C353.38 77.872 350.628 80.592 350.628 83.92V84.048H352.9V83.92C352.9 81.136 354.692 79.92 358.084 79.92C361.54 79.92 362.884 81.136 362.884 84.208V85.424L355.364 86.256C352.42 86.576 350.276 87.696 350.276 90.288C350.276 92.848 352.388 94.32 355.492 94.32ZM352.548 90.128C352.548 88.496 353.7 87.92 356.068 87.696L362.884 86.928V87.056C362.884 90.864 359.844 92.56 356.004 92.56C353.604 92.56 352.548 91.728 352.548 90.128ZM371.098 94V72.56H368.826V94H371.098ZM377.192 94V72.56H374.92V94H377.192ZM389.161 76.176V72.56H386.889V76.176H389.161ZM389.161 94V78.192H386.889V94H389.161ZM399.799 94.32C403.287 94.32 405.847 92.496 406.615 89.328H406.743V94H408.823V72.56H406.551V82.608H406.391C405.687 79.888 403.351 77.872 399.607 77.872C394.743 77.872 391.927 81.296 391.927 86.096C391.927 90.896 394.743 94.32 399.799 94.32ZM394.231 86.096C394.231 81.52 396.695 79.984 400.311 79.984C404.215 79.984 406.551 82.16 406.551 86.064V86.352C406.551 90.096 404.087 92.24 400.375 92.24C396.663 92.24 394.231 90.672 394.231 86.096ZM420.159 94.32C424.575 94.32 427.839 92.048 427.839 88.752V88.528H425.567V88.752C425.567 91.056 423.839 92.432 420.127 92.432C415.935 92.432 414.111 90.288 413.983 86.736H427.903C427.999 86.32 428.063 85.84 428.063 85.264C428.063 80.56 424.767 77.872 420.127 77.872C415.039 77.872 411.839 81.296 411.839 86.096C411.839 91.12 415.071 94.32 420.159 94.32ZM420.095 79.76C423.807 79.76 425.919 81.52 425.919 84.848C425.919 85.008 425.919 85.168 425.919 85.328H413.983C414.143 81.872 415.999 79.76 420.095 79.76ZM435.46 94.32C439.14 94.32 441.924 92.656 442.852 89.744H443.012V94H445.06V84.112C445.06 80.624 443.012 77.872 438.212 77.872C433.348 77.872 430.596 80.592 430.596 83.92V84.048H432.868V83.92C432.868 81.136 434.66 79.92 438.052 79.92C441.508 79.92 442.852 81.136 442.852 84.208V85.424L435.332 86.256C432.388 86.576 430.244 87.696 430.244 90.288C430.244 92.848 432.356 94.32 435.46 94.32ZM432.516 90.128C432.516 88.496 433.668 87.92 436.036 87.696L442.852 86.928V87.056C442.852 90.864 439.812 92.56 435.972 92.56C433.572 92.56 432.516 91.728 432.516 90.128Z" fill="white"/>
<path d="M65.566 134L66.826 130.58H72.766L74.026 134H75.376L70.588 121.112H68.986L64.252 134H65.566ZM69.616 122.93C69.688 122.75 69.76 122.516 69.778 122.408C69.796 122.534 69.886 122.75 69.94 122.93L72.352 129.446H67.222L69.616 122.93ZM81.2958 129.392C81.2958 131.768 82.8078 133.73 85.2918 133.73C86.7858 133.73 87.9918 133.01 88.5858 131.786V133.856C88.5858 135.674 87.3978 136.88 85.6158 136.88C84.0498 136.88 82.9697 136.052 82.6998 134.648H81.4578C81.7998 136.754 83.3658 138.014 85.5978 138.014C88.1538 138.014 89.8098 136.322 89.8098 133.73V125.288H88.7298L88.6038 127.034C88.0458 125.756 86.8938 125.054 85.3818 125.054C82.8258 125.054 81.2958 127.016 81.2958 129.392ZM82.5378 129.374C82.5378 127.61 83.6178 126.152 85.4898 126.152C87.3978 126.152 88.4778 127.52 88.4778 129.374C88.4778 131.246 87.3618 132.614 85.4718 132.614C83.6358 132.614 82.5378 131.156 82.5378 129.374ZM93.6975 134V120.878H92.4555V134H93.6975ZM95.727 129.644C95.727 132.29 97.599 134.216 100.155 134.216C102.711 134.216 104.583 132.29 104.583 129.644C104.583 126.98 102.711 125.054 100.155 125.054C97.599 125.054 95.727 126.98 95.727 129.644ZM96.987 129.626C96.987 127.61 98.283 126.17 100.155 126.17C102.009 126.17 103.323 127.61 103.323 129.626C103.323 131.678 102.009 133.1 100.155 133.1C98.283 133.1 96.987 131.678 96.987 129.626ZM107.649 134L107.775 132.218C108.387 133.568 109.593 134.216 111.051 134.216C113.589 134.216 115.101 132.272 115.101 129.662C115.101 127.034 113.625 125.054 111.087 125.054C109.611 125.054 108.423 125.702 107.811 126.98V120.878H106.569V134H107.649ZM107.829 129.626C107.829 127.628 108.945 126.17 110.853 126.17C112.743 126.17 113.841 127.628 113.841 129.626C113.841 131.642 112.743 133.082 110.853 133.082C108.945 133.082 107.829 131.642 107.829 129.626ZM119.583 134.216C121.059 134.216 122.247 133.568 122.787 132.47L122.949 134H123.993V128.366C123.993 126.062 122.517 125.054 120.501 125.054C118.359 125.054 116.919 126.188 116.919 127.952H118.053C118.053 126.782 118.953 126.098 120.465 126.098C121.743 126.098 122.769 126.638 122.769 128.348V128.636L119.889 128.87C117.855 129.032 116.631 130.04 116.631 131.642C116.631 133.172 117.729 134.216 119.583 134.216ZM119.871 133.208C118.683 133.208 117.891 132.668 117.891 131.606C117.891 130.634 118.557 129.914 120.195 129.77L122.769 129.572V130.04C122.769 131.93 121.707 133.208 119.871 133.208ZM127.781 134V120.878H126.539V134H127.781ZM136.495 134L136.621 132.218C137.233 133.568 138.439 134.216 139.897 134.216C142.435 134.216 143.947 132.272 143.947 129.662C143.947 127.034 142.471 125.054 139.933 125.054C138.457 125.054 137.269 125.702 136.657 126.98V120.878H135.415V134H136.495ZM136.675 129.626C136.675 127.628 137.791 126.17 139.699 126.17C141.589 126.17 142.687 127.628 142.687 129.626C142.687 131.642 141.589 133.082 139.699 133.082C137.791 133.082 136.675 131.642 136.675 129.626ZM150.481 125.18C150.175 125.108 149.941 125.09 149.671 125.09C148.447 125.09 147.529 125.702 147.187 126.638L147.097 125.288H145.927V134H147.169V129.032C147.169 127.376 148.195 126.296 149.797 126.296H150.481V125.18ZM154.282 134.216C155.758 134.216 156.946 133.568 157.486 132.47L157.648 134H158.692V128.366C158.692 126.062 157.216 125.054 155.2 125.054C153.058 125.054 151.618 126.188 151.618 127.952H152.752C152.752 126.782 153.652 126.098 155.164 126.098C156.442 126.098 157.468 126.638 157.468 128.348V128.636L154.588 128.87C152.554 129.032 151.33 130.04 151.33 131.642C151.33 133.172 152.428 134.216 154.282 134.216ZM154.57 133.208C153.382 133.208 152.59 132.668 152.59 131.606C152.59 130.634 153.256 129.914 154.894 129.77L157.468 129.572V130.04C157.468 131.93 156.406 133.208 154.57 133.208ZM162.427 134V129.446C162.427 127.484 163.435 126.188 165.217 126.188C166.657 126.188 167.575 126.908 167.575 128.942V134H168.817V128.672C168.817 126.476 167.827 125.054 165.433 125.054C164.173 125.054 163.021 125.684 162.445 126.8L162.265 125.288H161.185V134H162.427ZM174.712 134.216C176.17 134.216 177.394 133.568 178.006 132.218L178.132 134H179.212V120.878H177.97V126.944C177.358 125.684 176.206 125.054 174.766 125.054C172.174 125.054 170.68 127.034 170.68 129.662C170.68 132.272 172.174 134.216 174.712 134.216ZM174.928 133.082C173.038 133.082 171.94 131.642 171.94 129.626C171.94 127.628 173.038 126.17 174.928 126.17C176.836 126.17 177.952 127.628 177.952 129.626C177.952 131.642 176.836 133.082 174.928 133.082ZM188.632 134H189.874L191.674 128.528C191.908 127.808 192.052 127.286 192.178 126.818C192.286 127.34 192.43 127.88 192.646 128.528L194.446 134H195.652L198.604 125.288H197.308L195.58 130.544C195.274 131.48 195.238 131.696 195.058 132.416C194.896 131.768 194.68 131.012 194.518 130.544L192.808 125.288H191.53L189.802 130.544C189.712 130.832 189.424 131.714 189.28 132.416C189.1 131.714 188.938 131.12 188.74 130.544L187.03 125.288H185.752L188.632 134ZM200.767 122.894C201.271 122.894 201.703 122.48 201.703 121.976C201.703 121.472 201.271 121.04 200.767 121.04C200.263 121.04 199.849 121.472 199.849 121.976C199.849 122.48 200.263 122.894 200.767 122.894ZM200.155 134H201.397V125.288H200.155V134ZM205.985 134V126.332H207.731V125.288H205.985V122.534H204.761V125.288H203.015V126.332H204.761V134H205.985ZM210.591 133.982V129.248C210.591 127.574 211.563 126.188 213.435 126.188C214.785 126.188 215.739 126.908 215.739 128.942V134H216.981V128.672C216.981 126.476 215.955 125.054 213.669 125.054C212.211 125.054 211.149 125.756 210.591 126.8V120.878H209.349V133.982H210.591ZM225.744 134V120.878H224.502V134H225.744ZM227.774 129.644C227.774 132.29 229.646 134.216 232.202 134.216C234.758 134.216 236.63 132.29 236.63 129.644C236.63 126.98 234.758 125.054 232.202 125.054C229.646 125.054 227.774 126.98 227.774 129.644ZM229.034 129.626C229.034 127.61 230.33 126.17 232.202 126.17C234.056 126.17 235.37 127.61 235.37 129.626C235.37 131.678 234.056 133.1 232.202 133.1C230.33 133.1 229.034 131.678 229.034 129.626ZM238.004 129.662C238.004 132.398 239.678 134.216 242.144 134.216C244.124 134.216 245.672 133.046 246.086 131.264H244.826C244.484 132.38 243.44 133.1 242.144 133.1C240.38 133.1 239.228 131.714 239.228 129.644C239.228 127.502 240.47 126.152 242.234 126.152C243.44 126.152 244.484 126.818 244.808 128.024H246.05C245.708 126.224 244.232 125.054 242.216 125.054C239.678 125.054 238.004 126.926 238.004 129.662ZM250.47 134.216C251.946 134.216 253.134 133.568 253.674 132.47L253.836 134H254.88V128.366C254.88 126.062 253.404 125.054 251.388 125.054C249.246 125.054 247.806 126.188 247.806 127.952H248.94C248.94 126.782 249.84 126.098 251.352 126.098C252.63 126.098 253.656 126.638 253.656 128.348V128.636L250.776 128.87C248.742 129.032 247.518 130.04 247.518 131.642C247.518 133.172 248.616 134.216 250.47 134.216ZM250.758 133.208C249.57 133.208 248.778 132.668 248.778 131.606C248.778 130.634 249.444 129.914 251.082 129.77L253.656 129.572V130.04C253.656 131.93 252.594 133.208 250.758 133.208ZM258.668 134V120.878H257.426V134H258.668ZM267.382 134L267.508 132.218C268.12 133.568 269.326 134.216 270.784 134.216C273.322 134.216 274.834 132.272 274.834 129.662C274.834 127.034 273.358 125.054 270.82 125.054C269.344 125.054 268.156 125.702 267.544 126.98V120.878H266.302V134H267.382ZM267.562 129.626C267.562 127.628 268.678 126.17 270.586 126.17C272.476 126.17 273.574 127.628 273.574 129.626C273.574 131.642 272.476 133.082 270.586 133.082C268.678 133.082 267.562 131.642 267.562 129.626ZM280.468 134.216C282.52 134.216 283.87 133.226 284.338 131.39H283.15C282.826 132.542 281.908 133.154 280.486 133.154C278.614 133.154 277.498 131.93 277.408 129.806H284.338V129.194C284.338 126.728 282.736 125.054 280.378 125.054C277.894 125.054 276.202 126.926 276.202 129.644C276.202 132.38 277.912 134.216 280.468 134.216ZM280.378 126.116C282.016 126.116 283.096 127.232 283.096 128.906H277.444C277.66 127.196 278.74 126.116 280.378 126.116ZM285.729 129.392C285.729 131.768 287.241 133.73 289.725 133.73C291.219 133.73 292.425 133.01 293.019 131.786V133.856C293.019 135.674 291.831 136.88 290.049 136.88C288.483 136.88 287.403 136.052 287.133 134.648H285.891C286.233 136.754 287.799 138.014 290.031 138.014C292.587 138.014 294.243 136.322 294.243 133.73V125.288H293.163L293.037 127.034C292.479 125.756 291.327 125.054 289.815 125.054C287.259 125.054 285.729 127.016 285.729 129.392ZM286.971 129.374C286.971 127.61 288.051 126.152 289.923 126.152C291.831 126.152 292.911 127.52 292.911 129.374C292.911 131.246 291.795 132.614 289.905 132.614C288.069 132.614 286.971 131.156 286.971 129.374ZM297.447 122.894C297.951 122.894 298.383 122.48 298.383 121.976C298.383 121.472 297.951 121.04 297.447 121.04C296.943 121.04 296.529 121.472 296.529 121.976C296.529 122.48 296.943 122.894 297.447 122.894ZM296.835 134H298.077V125.288H296.835V134ZM301.909 134V129.446C301.909 127.484 302.917 126.188 304.699 126.188C306.139 126.188 307.057 126.908 307.057 128.942V134H308.299V128.672C308.299 126.476 307.309 125.054 304.915 125.054C303.655 125.054 302.503 125.684 301.927 126.8L301.747 125.288H300.667V134H301.909ZM312.017 134V129.446C312.017 127.484 313.025 126.188 314.807 126.188C316.247 126.188 317.165 126.908 317.165 128.942V134H318.407V128.672C318.407 126.476 317.417 125.054 315.023 125.054C313.763 125.054 312.611 125.684 312.035 126.8L311.855 125.288H310.775V134H312.017ZM321.494 122.894C321.998 122.894 322.43 122.48 322.43 121.976C322.43 121.472 321.998 121.04 321.494 121.04C320.99 121.04 320.576 121.472 320.576 121.976C320.576 122.48 320.99 122.894 321.494 122.894ZM320.882 134H322.124V125.288H320.882V134ZM325.956 134V129.446C325.956 127.484 326.964 126.188 328.746 126.188C330.186 126.188 331.104 126.908 331.104 128.942V134H332.346V128.672C332.346 126.476 331.356 125.054 328.962 125.054C327.702 125.054 326.55 125.684 325.974 126.8L325.794 125.288H324.714V134H325.956ZM334.227 129.392C334.227 131.768 335.739 133.73 338.223 133.73C339.717 133.73 340.923 133.01 341.517 131.786V133.856C341.517 135.674 340.329 136.88 338.547 136.88C336.981 136.88 335.901 136.052 335.631 134.648H334.389C334.731 136.754 336.297 138.014 338.529 138.014C341.085 138.014 342.741 136.322 342.741 133.73V125.288H341.661L341.535 127.034C340.977 125.756 339.825 125.054 338.313 125.054C335.757 125.054 334.227 127.016 334.227 129.392ZM335.469 129.374C335.469 127.61 336.549 126.152 338.421 126.152C340.329 126.152 341.409 127.52 341.409 129.374C341.409 131.246 340.293 132.614 338.403 132.614C336.567 132.614 335.469 131.156 335.469 129.374ZM344.595 131.552C344.595 133.172 345.819 134.216 347.781 134.216C349.761 134.216 351.093 133.19 351.093 131.624C351.093 130.364 350.409 129.662 348.897 129.284L347.403 128.906C346.449 128.672 345.981 128.204 345.981 127.538C345.981 126.602 346.665 126.08 347.889 126.08C349.059 126.08 349.761 126.674 349.797 127.682H351.003C350.949 126.062 349.761 125.054 347.925 125.054C346.053 125.054 344.775 126.026 344.775 127.556C344.775 128.744 345.513 129.536 347.025 129.914L348.519 130.292C349.545 130.544 349.905 130.958 349.905 131.678C349.905 132.614 349.113 133.19 347.763 133.19C346.539 133.19 345.783 132.56 345.783 131.552H344.595ZM355.193 133.388C355.193 132.488 354.635 131.966 353.987 131.966C353.357 131.966 352.925 132.416 352.925 133.046C352.925 133.658 353.357 134.018 353.861 134.018C354.077 134.018 354.221 133.964 354.329 133.892C354.329 134.396 353.861 134.864 353.213 134.972V135.638C354.329 135.476 355.193 134.504 355.193 133.388ZM362.088 129.644C362.088 132.29 363.96 134.216 366.516 134.216C369.072 134.216 370.944 132.29 370.944 129.644C370.944 126.98 369.072 125.054 366.516 125.054C363.96 125.054 362.088 126.98 362.088 129.644ZM363.348 129.626C363.348 127.61 364.644 126.17 366.516 126.17C368.37 126.17 369.684 127.61 369.684 129.626C369.684 131.678 368.37 133.1 366.516 133.1C364.644 133.1 363.348 131.678 363.348 129.626ZM378.84 125.288V129.914C378.84 131.984 377.85 133.1 376.176 133.1C374.79 133.1 373.872 132.362 373.872 130.292V125.27H372.612V130.688C372.612 132.812 373.728 134.216 375.78 134.216C377.148 134.216 378.354 133.532 378.84 132.524L379.002 134H380.082V125.288H378.84ZM387.223 125.18C386.917 125.108 386.683 125.09 386.413 125.09C385.189 125.09 384.271 125.702 383.929 126.638L383.839 125.288H382.669V134H383.911V129.032C383.911 127.376 384.937 126.296 386.539 126.296H387.223V125.18ZM393.128 131.552C393.128 133.172 394.352 134.216 396.314 134.216C398.294 134.216 399.626 133.19 399.626 131.624C399.626 130.364 398.942 129.662 397.43 129.284L395.936 128.906C394.982 128.672 394.514 128.204 394.514 127.538C394.514 126.602 395.198 126.08 396.422 126.08C397.592 126.08 398.294 126.674 398.33 127.682H399.536C399.482 126.062 398.294 125.054 396.458 125.054C394.586 125.054 393.308 126.026 393.308 127.556C393.308 128.744 394.046 129.536 395.558 129.914L397.052 130.292C398.078 130.544 398.438 130.958 398.438 131.678C398.438 132.614 397.646 133.19 396.296 133.19C395.072 133.19 394.316 132.56 394.316 131.552H393.128ZM403.669 134V126.332H405.415V125.288H403.669V122.534H402.445V125.288H400.699V126.332H402.445V134H403.669ZM406.332 129.644C406.332 132.29 408.204 134.216 410.76 134.216C413.316 134.216 415.188 132.29 415.188 129.644C415.188 126.98 413.316 125.054 410.76 125.054C408.204 125.054 406.332 126.98 406.332 129.644ZM407.592 129.626C407.592 127.61 408.888 126.17 410.76 126.17C412.614 126.17 413.928 127.61 413.928 129.626C413.928 131.678 412.614 133.1 410.76 133.1C408.888 133.1 407.592 131.678 407.592 129.626ZM421.729 125.18C421.423 125.108 421.189 125.09 420.919 125.09C419.695 125.09 418.777 125.702 418.435 126.638L418.345 125.288H417.175V134H418.417V129.032C418.417 127.376 419.443 126.296 421.045 126.296H421.729V125.18ZM422.762 137.798C423.158 137.888 423.554 137.924 424.076 137.924C425.318 137.924 426.164 137.366 426.668 135.998L430.664 125.288H429.386L426.632 132.884L423.824 125.288H422.51L426.038 134.522L425.66 135.548C425.228 136.718 424.472 136.772 423.716 136.772H422.762V137.798ZM438.188 134L438.315 132.218C438.927 133.568 440.133 134.216 441.591 134.216C444.129 134.216 445.641 132.272 445.641 129.662C445.641 127.034 444.165 125.054 441.627 125.054C440.151 125.054 438.963 125.702 438.351 126.98V120.878H437.109V134H438.188ZM438.369 129.626C438.369 127.628 439.485 126.17 441.393 126.17C443.283 126.17 444.381 127.628 444.381 129.626C444.381 131.642 443.283 133.082 441.393 133.082C439.485 133.082 438.369 131.642 438.369 129.626ZM451.274 134.216C453.326 134.216 454.676 133.226 455.144 131.39H453.956C453.632 132.542 452.714 133.154 451.292 133.154C449.42 133.154 448.304 131.93 448.214 129.806H455.144V129.194C455.144 126.728 453.542 125.054 451.184 125.054C448.7 125.054 447.008 126.926 447.008 129.644C447.008 132.38 448.718 134.216 451.274 134.216ZM451.184 126.116C452.822 126.116 453.902 127.232 453.902 128.906H448.25C448.466 127.196 449.546 126.116 451.184 126.116ZM456.536 129.392C456.536 131.768 458.048 133.73 460.532 133.73C462.026 133.73 463.232 133.01 463.826 131.786V133.856C463.826 135.674 462.638 136.88 460.856 136.88C459.29 136.88 458.21 136.052 457.94 134.648H456.698C457.04 136.754 458.606 138.014 460.838 138.014C463.394 138.014 465.05 136.322 465.05 133.73V125.288H463.97L463.844 127.034C463.286 125.756 462.134 125.054 460.622 125.054C458.066 125.054 456.536 127.016 456.536 129.392ZM457.778 129.374C457.778 127.61 458.858 126.152 460.73 126.152C462.638 126.152 463.718 127.52 463.718 129.374C463.718 131.246 462.602 132.614 460.712 132.614C458.876 132.614 457.778 131.156 457.778 129.374ZM470.144 134.216C471.62 134.216 472.808 133.568 473.348 132.47L473.51 134H474.554V128.366C474.554 126.062 473.078 125.054 471.062 125.054C468.92 125.054 467.48 126.188 467.48 127.952H468.614C468.614 126.782 469.514 126.098 471.026 126.098C472.304 126.098 473.33 126.638 473.33 128.348V128.636L470.45 128.87C468.416 129.032 467.192 130.04 467.192 131.642C467.192 133.172 468.29 134.216 470.144 134.216ZM470.432 133.208C469.244 133.208 468.452 132.668 468.452 131.606C468.452 130.634 469.118 129.914 470.756 129.77L473.33 129.572V130.04C473.33 131.93 472.268 133.208 470.432 133.208ZM477.658 122.894C478.162 122.894 478.594 122.48 478.594 121.976C478.594 121.472 478.162 121.04 477.658 121.04C477.154 121.04 476.74 121.472 476.74 121.976C476.74 122.48 477.154 122.894 477.658 122.894ZM477.046 134H478.288V125.288H477.046V134ZM482.12 134V129.446C482.12 127.484 483.128 126.188 484.91 126.188C486.35 126.188 487.268 126.908 487.268 128.942V134H488.51V128.672C488.51 126.476 487.52 125.054 485.126 125.054C483.866 125.054 482.714 125.684 482.138 126.8L481.958 125.288H480.878V134H482.12ZM496.59 122.894C497.094 122.894 497.526 122.48 497.526 121.976C497.526 121.472 497.094 121.04 496.59 121.04C496.086 121.04 495.672 121.472 495.672 121.976C495.672 122.48 496.086 122.894 496.59 122.894ZM495.978 134H497.22V125.288H495.978V134ZM501.052 134V129.446C501.052 127.484 502.06 126.188 503.842 126.188C505.282 126.188 506.2 126.908 506.2 128.942V134H507.442V128.672C507.442 126.476 506.452 125.054 504.058 125.054C502.798 125.054 501.646 125.684 501.07 126.8L500.89 125.288H499.81V134H501.052ZM517.411 134.216C518.887 134.216 520.075 133.568 520.615 132.47L520.777 134H521.821V128.366C521.821 126.062 520.345 125.054 518.329 125.054C516.187 125.054 514.747 126.188 514.747 127.952H515.881C515.881 126.782 516.781 126.098 518.293 126.098C519.571 126.098 520.597 126.638 520.597 128.348V128.636L517.717 128.87C515.683 129.032 514.459 130.04 514.459 131.642C514.459 133.172 515.557 134.216 517.411 134.216ZM517.699 133.208C516.511 133.208 515.719 132.668 515.719 131.606C515.719 130.634 516.385 129.914 518.023 129.77L520.597 129.572V130.04C520.597 131.93 519.535 133.208 517.699 133.208ZM64.558 155.552C64.558 157.172 65.782 158.216 67.744 158.216C69.724 158.216 71.056 157.19 71.056 155.624C71.056 154.364 70.372 153.662 68.86 153.284L67.366 152.906C66.412 152.672 65.944 152.204 65.944 151.538C65.944 150.602 66.628 150.08 67.852 150.08C69.022 150.08 69.724 150.674 69.76 151.682H70.966C70.912 150.062 69.724 149.054 67.888 149.054C66.016 149.054 64.738 150.026 64.738 151.556C64.738 152.744 65.476 153.536 66.988 153.914L68.482 154.292C69.508 154.544 69.868 154.958 69.868 155.678C69.868 156.614 69.076 157.19 67.726 157.19C66.502 157.19 65.746 156.56 65.746 155.552H64.558ZM74.3427 158V152.6C74.3427 151.268 75.2247 150.188 76.6827 150.188C77.9967 150.188 78.8427 151.052 78.8427 152.528V158H80.0667V152.618C80.0667 151.268 80.9307 150.17 82.3887 150.17C83.7207 150.17 84.5487 151.052 84.5487 152.546V158H85.7547V152.294C85.7547 150.278 84.5127 149.054 82.6227 149.054C81.2187 149.054 80.1567 149.774 79.7607 150.908C79.3467 149.774 78.3207 149.054 76.9527 149.054C75.7287 149.054 74.7567 149.612 74.3247 150.53L74.1807 149.288H73.1007V158H74.3427ZM90.755 158.216C92.231 158.216 93.419 157.568 93.959 156.47L94.121 158H95.165V152.366C95.165 150.062 93.689 149.054 91.673 149.054C89.531 149.054 88.091 150.188 88.091 151.952H89.225C89.225 150.782 90.125 150.098 91.637 150.098C92.915 150.098 93.941 150.638 93.941 152.348V152.636L91.061 152.87C89.027 153.032 87.803 154.04 87.803 155.642C87.803 157.172 88.901 158.216 90.755 158.216ZM91.043 157.208C89.855 157.208 89.063 156.668 89.063 155.606C89.063 154.634 89.729 153.914 91.367 153.77L93.941 153.572V154.04C93.941 155.93 92.879 157.208 91.043 157.208ZM98.9533 158V144.878H97.7113V158H98.9533ZM102.891 158V144.878H101.649V158H102.891ZM109.787 155.552C109.787 157.172 111.011 158.216 112.973 158.216C114.953 158.216 116.285 157.19 116.285 155.624C116.285 154.364 115.601 153.662 114.089 153.284L112.595 152.906C111.641 152.672 111.173 152.204 111.173 151.538C111.173 150.602 111.857 150.08 113.081 150.08C114.251 150.08 114.953 150.674 114.989 151.682H116.195C116.141 150.062 114.953 149.054 113.117 149.054C111.245 149.054 109.967 150.026 109.967 151.556C109.967 152.744 110.705 153.536 112.217 153.914L113.711 154.292C114.737 154.544 115.097 154.958 115.097 155.678C115.097 156.614 114.305 157.19 112.955 157.19C111.731 157.19 110.975 156.56 110.975 155.552H109.787ZM120.327 158V150.332H122.073V149.288H120.327V146.534H119.103V149.288H117.357V150.332H119.103V158H120.327ZM129.811 149.288V153.914C129.811 155.984 128.821 157.1 127.147 157.1C125.761 157.1 124.843 156.362 124.843 154.292V149.27H123.583V154.688C123.583 156.812 124.699 158.216 126.751 158.216C128.119 158.216 129.325 157.532 129.811 156.524L129.973 158H131.053V149.288H129.811ZM136.884 158.216C138.342 158.216 139.566 157.568 140.178 156.218L140.304 158H141.384V144.878H140.142V150.944C139.53 149.684 138.378 149.054 136.938 149.054C134.346 149.054 132.852 151.034 132.852 153.662C132.852 156.272 134.346 158.216 136.884 158.216ZM137.1 157.082C135.21 157.082 134.112 155.642 134.112 153.626C134.112 151.628 135.21 150.17 137.1 150.17C139.008 150.17 140.124 151.628 140.124 153.626C140.124 155.642 139.008 157.082 137.1 157.082ZM144.588 146.894C145.092 146.894 145.524 146.48 145.524 145.976C145.524 145.472 145.092 145.04 144.588 145.04C144.084 145.04 143.67 145.472 143.67 145.976C143.67 146.48 144.084 146.894 144.588 146.894ZM143.976 158H145.218V149.288H143.976V158ZM147.196 153.644C147.196 156.29 149.068 158.216 151.624 158.216C154.18 158.216 156.052 156.29 156.052 153.644C156.052 150.98 154.18 149.054 151.624 149.054C149.068 149.054 147.196 150.98 147.196 153.644ZM148.456 153.626C148.456 151.61 149.752 150.17 151.624 150.17C153.478 150.17 154.792 151.61 154.792 153.626C154.792 155.678 153.478 157.1 151.624 157.1C149.752 157.1 148.456 155.678 148.456 153.626ZM163.642 146.894C164.146 146.894 164.578 146.48 164.578 145.976C164.578 145.472 164.146 145.04 163.642 145.04C163.138 145.04 162.724 145.472 162.724 145.976C162.724 146.48 163.138 146.894 163.642 146.894ZM163.03 158H164.272V149.288H163.03V158ZM168.104 158V153.446C168.104 151.484 169.112 150.188 170.894 150.188C172.334 150.188 173.252 150.908 173.252 152.942V158H174.494V152.672C174.494 150.476 173.504 149.054 171.11 149.054C169.85 149.054 168.698 149.684 168.122 150.8L167.942 149.288H166.862V158H168.104ZM181.458 148.46C181.458 150.224 182.52 151.376 184.536 151.862L186.714 152.402C188.1 152.726 188.748 153.482 188.748 154.634C188.748 156.11 187.542 157.028 185.652 157.028C183.888 157.028 182.7 156.146 182.628 154.796H181.296C181.458 156.902 183.15 158.216 185.652 158.216C188.316 158.216 190.044 156.794 190.044 154.562C190.044 152.816 189 151.664 186.984 151.178L184.77 150.638C183.42 150.296 182.754 149.576 182.754 148.442C182.754 146.984 183.942 146.048 185.76 146.048C187.38 146.048 188.37 146.876 188.514 148.334H189.828C189.63 146.174 188.1 144.878 185.778 144.878C183.186 144.878 181.458 146.3 181.458 148.46ZM191.493 153.644C191.493 156.29 193.365 158.216 195.921 158.216C198.477 158.216 200.349 156.29 200.349 153.644C200.349 150.98 198.477 149.054 195.921 149.054C193.365 149.054 191.493 150.98 191.493 153.644ZM192.753 153.626C192.753 151.61 194.049 150.17 195.921 150.17C197.775 150.17 199.089 151.61 199.089 153.626C199.089 155.678 197.775 157.1 195.921 157.1C194.049 157.1 192.753 155.678 192.753 153.626ZM208.244 149.288V153.914C208.244 155.984 207.254 157.1 205.58 157.1C204.194 157.1 203.276 156.362 203.276 154.292V149.27H202.016V154.688C202.016 156.812 203.132 158.216 205.184 158.216C206.552 158.216 207.758 157.532 208.244 156.524L208.406 158H209.486V149.288H208.244ZM214.071 158V150.332H215.817V149.288H214.071V146.534H212.847V149.288H211.101V150.332H212.847V158H214.071ZM218.677 157.982V153.248C218.677 151.574 219.649 150.188 221.521 150.188C222.871 150.188 223.825 150.908 223.825 152.942V158H225.067V152.672C225.067 150.476 224.041 149.054 221.755 149.054C220.297 149.054 219.235 149.756 218.677 150.8V144.878H217.435V157.982H218.677ZM234.1 145.112H232.804V158H240.022V156.812H234.1V145.112ZM240.905 153.644C240.905 156.29 242.777 158.216 245.333 158.216C247.889 158.216 249.761 156.29 249.761 153.644C249.761 150.98 247.889 149.054 245.333 149.054C242.777 149.054 240.905 150.98 240.905 153.644ZM242.165 153.626C242.165 151.61 243.461 150.17 245.333 150.17C247.187 150.17 248.501 151.61 248.501 153.626C248.501 155.678 247.187 157.1 245.333 157.1C243.461 157.1 242.165 155.678 242.165 153.626ZM252.989 158V153.446C252.989 151.484 253.997 150.188 255.779 150.188C257.219 150.188 258.137 150.908 258.137 152.942V158H259.379V152.672C259.379 150.476 258.389 149.054 255.995 149.054C254.735 149.054 253.583 149.684 253.007 150.8L252.827 149.288H251.747V158H252.989ZM265.275 158.216C266.733 158.216 267.957 157.568 268.569 156.218L268.695 158H269.775V144.878H268.533V150.944C267.921 149.684 266.769 149.054 265.329 149.054C262.737 149.054 261.243 151.034 261.243 153.662C261.243 156.272 262.737 158.216 265.275 158.216ZM265.491 157.082C263.601 157.082 262.503 155.642 262.503 153.626C262.503 151.628 263.601 150.17 265.491 150.17C267.399 150.17 268.515 151.628 268.515 153.626C268.515 155.642 267.399 157.082 265.491 157.082ZM271.754 153.644C271.754 156.29 273.626 158.216 276.182 158.216C278.738 158.216 280.61 156.29 280.61 153.644C280.61 150.98 278.738 149.054 276.182 149.054C273.626 149.054 271.754 150.98 271.754 153.644ZM273.014 153.626C273.014 151.61 274.31 150.17 276.182 150.17C278.036 150.17 279.35 151.61 279.35 153.626C279.35 155.678 278.036 157.1 276.182 157.1C274.31 157.1 273.014 155.678 273.014 153.626ZM283.839 158V153.446C283.839 151.484 284.847 150.188 286.629 150.188C288.069 150.188 288.987 150.908 288.987 152.942V158H290.229V152.672C290.229 150.476 289.239 149.054 286.845 149.054C285.585 149.054 284.433 149.684 283.857 150.8L283.677 149.288H282.597V158H283.839ZM298.308 146.894C298.812 146.894 299.244 146.48 299.244 145.976C299.244 145.472 298.812 145.04 298.308 145.04C297.804 145.04 297.39 145.472 297.39 145.976C297.39 146.48 297.804 146.894 298.308 146.894ZM297.696 158H298.938V149.288H297.696V158ZM302.77 158V153.446C302.77 151.484 303.778 150.188 305.56 150.188C307 150.188 307.918 150.908 307.918 152.942V158H309.16V152.672C309.16 150.476 308.17 149.054 305.776 149.054C304.516 149.054 303.364 149.684 302.788 150.8L302.608 149.288H301.528V158H302.77ZM320.282 158.216C322.334 158.216 323.684 157.226 324.152 155.39H322.964C322.64 156.542 321.722 157.154 320.3 157.154C318.428 157.154 317.312 155.93 317.222 153.806H324.152V153.194C324.152 150.728 322.55 149.054 320.192 149.054C317.708 149.054 316.016 150.926 316.016 153.644C316.016 156.38 317.726 158.216 320.282 158.216ZM320.192 150.116C321.83 150.116 322.91 151.232 322.91 152.906H317.258C317.474 151.196 318.554 150.116 320.192 150.116ZM328.552 158.216C330.028 158.216 331.216 157.568 331.756 156.47L331.918 158H332.962V152.366C332.962 150.062 331.486 149.054 329.47 149.054C327.328 149.054 325.888 150.188 325.888 151.952H327.022C327.022 150.782 327.922 150.098 329.434 150.098C330.712 150.098 331.738 150.638 331.738 152.348V152.636L328.858 152.87C326.824 153.032 325.6 154.04 325.6 155.642C325.6 157.172 326.698 158.216 328.552 158.216ZM328.84 157.208C327.652 157.208 326.86 156.668 326.86 155.606C326.86 154.634 327.526 153.914 329.164 153.77L331.738 153.572V154.04C331.738 155.93 330.676 157.208 328.84 157.208ZM340.008 149.18C339.702 149.108 339.468 149.09 339.198 149.09C337.974 149.09 337.056 149.702 336.714 150.638L336.624 149.288H335.454V158H336.696V153.032C336.696 151.376 337.722 150.296 339.324 150.296H340.008V149.18ZM342.955 158V144.878H341.713V158H342.955ZM344.715 161.798C345.111 161.888 345.507 161.924 346.029 161.924C347.271 161.924 348.117 161.366 348.621 159.998L352.617 149.288H351.339L348.585 156.884L345.777 149.288H344.463L347.991 158.522L347.613 159.548C347.181 160.718 346.425 160.772 345.669 160.772H344.715V161.798ZM367.072 158V156.794H360.574L363.58 154.166C366.154 151.916 367 150.674 367 148.802C367 146.444 365.38 144.878 362.95 144.878C360.412 144.878 358.702 146.66 358.63 149.36H359.926C359.98 147.362 361.15 146.066 362.932 146.066C364.642 146.066 365.686 147.128 365.686 148.874C365.686 150.404 365.074 151.304 362.698 153.374L358.576 156.974V158H367.072ZM368.863 151.556C368.863 155.57 370.789 158.234 374.029 158.234C377.251 158.234 379.177 155.57 379.177 151.556C379.177 147.56 377.215 144.86 374.029 144.86C370.825 144.86 368.863 147.56 368.863 151.556ZM370.141 151.556C370.141 148.19 371.563 146.048 374.029 146.048C376.495 146.048 377.917 148.19 377.917 151.556C377.917 154.904 376.495 157.064 374.029 157.064C371.563 157.064 370.141 154.904 370.141 151.556ZM383.418 146.282V158H384.66V145.112H380.79V146.282H383.418ZM396.432 155.264V154.112H394.92V145.112H393.192L386.892 154.112V155.264H393.66V158H394.92V155.264H396.432ZM388.296 154.112L393.66 146.444V154.112H388.296Z" fill="white"/>
<rect width="170" height="56" transform="translate(64 368)" fill="#F9F9F9" fill-opacity="0.15"/>
<path d="M100.544 402H101.744L106.096 390.544H104.912L101.872 398.496C101.696 398.928 101.408 399.728 101.168 400.56C100.912 399.76 100.688 399.136 100.448 398.512L97.392 390.544H96.16L100.544 402ZM107.946 392.128C108.394 392.128 108.778 391.76 108.778 391.312C108.778 390.864 108.394 390.48 107.946 390.48C107.498 390.48 107.13 390.864 107.13 391.312C107.13 391.76 107.498 392.128 107.946 392.128ZM107.402 402H108.506V394.256H107.402V402ZM114.056 402.192C115.88 402.192 117.08 401.312 117.496 399.68H116.44C116.152 400.704 115.336 401.248 114.072 401.248C112.408 401.248 111.416 400.16 111.336 398.272H117.496V397.728C117.496 395.536 116.072 394.048 113.976 394.048C111.768 394.048 110.264 395.712 110.264 398.128C110.264 400.56 111.784 402.192 114.056 402.192ZM113.976 394.992C115.432 394.992 116.392 395.984 116.392 397.472H111.368C111.56 395.952 112.52 394.992 113.976 394.992ZM120.69 402H121.794L123.394 397.136C123.602 396.496 123.73 396.032 123.842 395.616C123.938 396.08 124.066 396.56 124.258 397.136L125.858 402H126.93L129.554 394.256H128.402L126.866 398.928C126.594 399.76 126.562 399.952 126.402 400.592C126.258 400.016 126.066 399.344 125.922 398.928L124.402 394.256H123.266L121.73 398.928C121.65 399.184 121.394 399.968 121.266 400.592C121.106 399.968 120.962 399.44 120.786 398.928L119.266 394.256H118.13L120.69 402ZM134.827 398.144C134.827 400.576 136.315 402.192 138.507 402.192C140.267 402.192 141.643 401.152 142.011 399.568H140.891C140.587 400.56 139.659 401.2 138.507 401.2C136.939 401.2 135.915 399.968 135.915 398.128C135.915 396.224 137.019 395.024 138.587 395.024C139.659 395.024 140.587 395.616 140.875 396.688H141.979C141.675 395.088 140.363 394.048 138.571 394.048C136.315 394.048 134.827 395.712 134.827 398.144ZM143.139 398.128C143.139 400.48 144.803 402.192 147.075 402.192C149.347 402.192 151.011 400.48 151.011 398.128C151.011 395.76 149.347 394.048 147.075 394.048C144.803 394.048 143.139 395.76 143.139 398.128ZM144.259 398.112C144.259 396.32 145.411 395.04 147.075 395.04C148.723 395.04 149.891 396.32 149.891 398.112C149.891 399.936 148.723 401.2 147.075 401.2C145.411 401.2 144.259 399.936 144.259 398.112ZM153.929 402V390.336H152.825V402H153.929ZM157.429 402V390.336H156.325V402H157.429ZM163.025 402.192C164.849 402.192 166.049 401.312 166.465 399.68H165.409C165.121 400.704 164.305 401.248 163.041 401.248C161.377 401.248 160.385 400.16 160.305 398.272H166.465V397.728C166.465 395.536 165.041 394.048 162.945 394.048C160.737 394.048 159.233 395.712 159.233 398.128C159.233 400.56 160.753 402.192 163.025 402.192ZM162.945 394.992C164.401 394.992 165.361 395.984 165.361 397.472H160.337C160.529 395.952 161.489 394.992 162.945 394.992ZM167.686 398.144C167.686 400.576 169.174 402.192 171.366 402.192C173.126 402.192 174.502 401.152 174.87 399.568H173.75C173.446 400.56 172.518 401.2 171.366 401.2C169.798 401.2 168.774 399.968 168.774 398.128C168.774 396.224 169.878 395.024 171.446 395.024C172.518 395.024 173.446 395.616 173.734 396.688H174.838C174.534 395.088 173.222 394.048 171.43 394.048C169.174 394.048 167.686 395.712 167.686 398.144ZM178.319 402V395.184H179.871V394.256H178.319V391.808H177.231V394.256H175.679V395.184H177.231V402H178.319ZM181.852 392.128C182.3 392.128 182.684 391.76 182.684 391.312C182.684 390.864 182.3 390.48 181.852 390.48C181.404 390.48 181.036 390.864 181.036 391.312C181.036 391.76 181.404 392.128 181.852 392.128ZM181.308 402H182.412V394.256H181.308V402ZM184.171 398.128C184.171 400.48 185.835 402.192 188.107 402.192C190.379 402.192 192.043 400.48 192.043 398.128C192.043 395.76 190.379 394.048 188.107 394.048C185.835 394.048 184.171 395.76 184.171 398.128ZM185.291 398.112C185.291 396.32 186.443 395.04 188.107 395.04C189.755 395.04 190.923 396.32 190.923 398.112C190.923 399.936 189.755 401.2 188.107 401.2C186.443 401.2 185.291 399.936 185.291 398.112ZM194.912 402V397.952C194.912 396.208 195.808 395.056 197.392 395.056C198.672 395.056 199.488 395.696 199.488 397.504V402H200.592V397.264C200.592 395.312 199.712 394.048 197.584 394.048C196.464 394.048 195.44 394.608 194.928 395.6L194.768 394.256H193.808V402H194.912Z" fill="white"/>
</svg>
